<?xml version="1.0" encoding="UTF-8"?>
<svg xmlns="http://www.w3.org/2000/svg" xmlns:xlink="http://www.w3.org/1999/xlink" viewBox="0 0 48 48" width="96px" height="96px">
<g id="surface85165954">
<path style=" stroke:none;fill-rule:nonzero;fill:rgb(100%,100%,100%);fill-opacity:1;" d="M 24 7.5 C 33.113281 7.5 40.5 14.886719 40.5 24 C 40.5 31.324219 35.722656 37.535156 29.117188 39.6875 C 29.117188 39.679688 29.121094 39.671875 29.121094 39.671875 C 29.121094 39.671875 28.007812 39.148438 28.03125 38.21875 C 28.058594 37.191406 28.03125 34.800781 28.03125 33.921875 C 28.03125 32.414062 27.078125 31.347656 27.078125 31.347656 C 27.078125 31.347656 34.558594 31.429688 34.558594 23.445312 C 34.558594 20.367188 32.949219 18.761719 32.949219 18.761719 C 32.949219 18.761719 33.796875 15.476562 32.65625 14.078125 C 31.378906 13.941406 29.09375 15.300781 28.117188 15.933594 C 28.117188 15.933594 26.574219 15.300781 24 15.300781 C 21.425781 15.300781 19.882812 15.933594 19.882812 15.933594 C 18.90625 15.300781 16.621094 13.941406 15.34375 14.078125 C 14.203125 15.476562 15.050781 18.761719 15.050781 18.761719 C 15.050781 18.761719 13.441406 20.367188 13.441406 23.445312 C 13.441406 31.429688 20.921875 31.347656 20.921875 31.347656 C 20.921875 31.347656 20.167969 32.199219 20.003906 33.453125 C 19.484375 33.628906 18.714844 33.847656 18.09375 33.847656 C 16.46875 33.847656 15.234375 32.269531 14.78125 31.539062 C 14.335938 30.820312 13.417969 30.214844 12.566406 30.214844 C 12.003906 30.214844 11.730469 30.496094 11.730469 30.816406 C 11.730469 31.136719 12.515625 31.363281 13.039062 31.957031 C 14.132812 33.214844 14.113281 36.035156 18.019531 36.035156 C 18.441406 36.035156 19.308594 35.933594 19.960938 35.84375 C 19.957031 36.734375 19.953125 37.671875 19.96875 38.21875 C 19.992188 39.152344 18.878906 39.671875 18.878906 39.671875 C 18.878906 39.671875 18.882812 39.683594 18.882812 39.6875 C 12.277344 37.535156 7.5 31.324219 7.5 24 C 7.5 14.886719 14.886719 7.5 24 7.5 Z M 24 7.5 "/>
</g>
</svg>
