<?xml version="1.0" encoding="UTF-8"?>
<svg xmlns="http://www.w3.org/2000/svg" xmlns:xlink="http://www.w3.org/1999/xlink" viewBox="0 0 48 48" width="48px" height="48px">
<g id="surface85176490">
<path style=" stroke:none;fill-rule:nonzero;fill:rgb(100%,100%,100%);fill-opacity:1;" d="M 15.359375 2.878906 C 8.480469 2.878906 2.878906 8.480469 2.878906 15.359375 L 2.878906 32.640625 C 2.878906 39.519531 8.480469 45.121094 15.359375 45.121094 L 32.640625 45.121094 C 39.519531 45.121094 45.121094 39.519531 45.121094 32.640625 L 45.121094 15.359375 C 45.121094 8.480469 39.519531 2.878906 32.640625 2.878906 Z M 15.359375 4.800781 L 32.640625 4.800781 C 38.484375 4.800781 43.199219 9.515625 43.199219 15.359375 L 43.199219 32.640625 C 43.199219 38.484375 38.484375 43.199219 32.640625 43.199219 L 15.359375 43.199219 C 9.515625 43.199219 4.800781 38.484375 4.800781 32.640625 L 4.800781 15.359375 C 4.800781 9.515625 9.515625 4.800781 15.359375 4.800781 Z M 35.519531 10.558594 C 34.460938 10.558594 33.601562 11.417969 33.601562 12.480469 C 33.601562 13.539062 34.460938 14.398438 35.519531 14.398438 C 36.582031 14.398438 37.441406 13.539062 37.441406 12.480469 C 37.441406 11.417969 36.582031 10.558594 35.519531 10.558594 Z M 24 13.441406 C 18.179688 13.441406 13.441406 18.179688 13.441406 24 C 13.441406 29.820312 18.179688 34.558594 24 34.558594 C 29.820312 34.558594 34.558594 29.820312 34.558594 24 C 34.558594 18.179688 29.820312 13.441406 24 13.441406 Z M 24 15.359375 C 28.78125 15.359375 32.640625 19.21875 32.640625 24 C 32.640625 28.78125 28.78125 32.640625 24 32.640625 C 19.21875 32.640625 15.359375 28.78125 15.359375 24 C 15.359375 19.21875 19.21875 15.359375 24 15.359375 Z M 24 15.359375 "/>
</g>
</svg>
